<svg xmlns="http://www.w3.org/2000/svg" viewBox="0 0 361 361"><defs><style>.cls-1,.cls-8{fill:#fff;}.cls-2,.cls-9{fill:#ff0;}.cls-10,.cls-3{fill:lime;}.cls-12,.cls-4{fill:red;}.cls-11,.cls-5{fill:blue;}.cls-6,.cls-7{fill:none;}.cls-10,.cls-11,.cls-12,.cls-6,.cls-7,.cls-8,.cls-9{stroke:#000;}.cls-10,.cls-11,.cls-12,.cls-7,.cls-8,.cls-9{stroke-width:0.5px;}.cls-10,.cls-11,.cls-12,.cls-9{stroke-linejoin:bevel;}</style></defs><title>Asset 1</title><g id="Layer_2" data-name="Layer 2"><g id="svg2"><g id="layer1"><rect id="rect1310" class="cls-1" x="0.5" y="0.5" width="360" height="360"/><path id="path4280" class="cls-2" d="M144.5,336.5h48v-120h24l-36-36-36,36h24v96h-24v24"/><path id="path5010" class="cls-3" d="M24.5,144.5v48h120v24l36-36-36-36v24h-96v-24h-24"/><path id="path5759" class="cls-4" d="M216.5,24.5h-48v120h-24l36,36,36-36h-24v-96h24v-24"/><path id="path5761" class="cls-5" d="M336.5,216.5v-48h-120v-24l-36,36,36,36v-24h96v24h24"/><rect id="rect2307" class="cls-2" x="0.5" y="216.5" width="144" height="144"/><rect id="rect3035" class="cls-3" x="0.5" y="0.5" width="144" height="144"/><rect id="rect3037" class="cls-4" x="216.5" y="0.5" width="144" height="144"/><rect id="rect3039" class="cls-5" x="216.5" y="216.5" width="144" height="144"/><rect id="rect4004" class="cls-6" x="0.5" y="0.5" width="360" height="360"/><g id="squares"><g id="g7984"><path id="path6495" class="cls-7" d="M144.5,360.5v-144"/><path id="path7964" class="cls-7" d="M144.5,216.5h72"/><path id="path7968" class="cls-7" d="M144.5,240.5h72"/><path id="path7970" class="cls-7" d="M144.5,264.5h72"/><path id="path7972" class="cls-7" d="M144.5,288.5h72"/><path id="path7974" class="cls-7" d="M144.5,312.5h72"/><path id="path7976" class="cls-7" d="M144.5,336.5h72"/><path id="path7978" class="cls-7" d="M168.5,360.5v-144"/><path id="path7980" class="cls-7" d="M192.5,360.5v-144"/><path id="path7982" class="cls-7" d="M216.5,360.5v-144"/></g><g id="g7996"><path id="path6495-2" data-name="path6495" class="cls-7" d="M.5,144.5h144"/><path id="path7964-2" data-name="path7964" class="cls-7" d="M144.5,144.5v72"/><path id="path7968-2" data-name="path7968" class="cls-7" d="M120.5,144.5v72"/><path id="path7970-2" data-name="path7970" class="cls-7" d="M96.5,144.5v72"/><path id="path7972-2" data-name="path7972" class="cls-7" d="M72.5,144.5v72"/><path id="path7974-2" data-name="path7974" class="cls-7" d="M48.5,144.5v72"/><path id="path7976-2" data-name="path7976" class="cls-7" d="M24.5,144.5v72"/><path id="path7978-2" data-name="path7978" class="cls-7" d="M.5,168.5h144"/><path id="path7980-2" data-name="path7980" class="cls-7" d="M.5,192.5h144"/><path id="path7982-2" data-name="path7982" class="cls-7" d="M.5,216.5h144"/></g><g id="g8018"><path id="path6495-3" data-name="path6495" class="cls-7" d="M216.5.5v144"/><path id="path7964-3" data-name="path7964" class="cls-7" d="M216.5,144.5h-72"/><path id="path7968-3" data-name="path7968" class="cls-7" d="M216.5,120.5h-72"/><path id="path7970-3" data-name="path7970" class="cls-7" d="M216.5,96.5h-72"/><path id="path7972-3" data-name="path7972" class="cls-7" d="M216.5,72.5h-72"/><path id="path7974-3" data-name="path7974" class="cls-7" d="M216.5,48.5h-72"/><path id="path7976-3" data-name="path7976" class="cls-7" d="M216.5,24.5h-72"/><path id="path7978-3" data-name="path7978" class="cls-7" d="M192.5.5v144"/><path id="path7980-3" data-name="path7980" class="cls-7" d="M168.5.5v144"/><path id="path7982-3" data-name="path7982" class="cls-7" d="M144.5.5v144"/></g><g id="g8040"><path id="path6495-4" data-name="path6495" class="cls-7" d="M360.5,216.5h-144"/><path id="path7964-4" data-name="path7964" class="cls-7" d="M216.5,216.5v-72"/><path id="path7968-4" data-name="path7968" class="cls-7" d="M240.5,216.5v-72"/><path id="path7970-4" data-name="path7970" class="cls-7" d="M264.5,216.5v-72"/><path id="path7972-4" data-name="path7972" class="cls-7" d="M288.5,216.5v-72"/><path id="path7974-4" data-name="path7974" class="cls-7" d="M312.5,216.5v-72"/><path id="path7976-4" data-name="path7976" class="cls-7" d="M336.5,216.5v-72"/><path id="path7978-4" data-name="path7978" class="cls-7" d="M360.5,192.5h-144"/><path id="path7980-4" data-name="path7980" class="cls-7" d="M360.5,168.5h-144"/><path id="path7982-4" data-name="path7982" class="cls-7" d="M360.5,144.5h-144"/></g><path id="path8062" class="cls-7" d="M144.5,216.5l72-72"/><path id="path8064" class="cls-7" d="M144.5,144.5l72,72"/></g><g id="g3221"><path id="path3041" class="cls-8" d="M72.5,216.5l72,72-72,72-72-72Z"/><path id="path3176" class="cls-7" d="M72.5,240.5l48,48-48,48-48-48Z"/><g id="g3215"><rect id="rect3178" class="cls-9" x="60.5" y="252.5" width="24" height="24"/><rect id="rect3180" class="cls-9" x="36.5" y="276.5" width="24" height="24"/><rect id="rect3182" class="cls-9" x="60.5" y="300.5" width="24" height="24"/><rect id="rect3184" class="cls-9" x="84.5" y="276.5" width="24" height="24"/></g></g><g id="g3230"><path id="path3041-2" data-name="path3041" class="cls-8" d="M72.5.5l72,72-72,72-72-72Z"/><path id="path3176-2" data-name="path3176" class="cls-7" d="M72.5,24.5l48,48-48,48-48-48Z"/><g id="g3236"><rect id="rect3178-2" data-name="rect3178" class="cls-10" x="60.5" y="36.5" width="24" height="24"/><rect id="rect3180-2" data-name="rect3180" class="cls-10" x="36.5" y="60.5" width="24" height="24"/><rect id="rect3182-2" data-name="rect3182" class="cls-10" x="60.5" y="84.5" width="24" height="24"/><rect id="rect3184-2" data-name="rect3184" class="cls-10" x="84.5" y="60.5" width="24" height="24"/></g></g><g id="g3246"><path id="path3041-3" data-name="path3041" class="cls-8" d="M288.5,216.5l72,72-72,72-72-72Z"/><path id="path3176-3" data-name="path3176" class="cls-7" d="M288.5,240.5l48,48-48,48-48-48Z"/><g id="g3252"><rect id="rect3178-3" data-name="rect3178" class="cls-11" x="276.5" y="252.5" width="24" height="24"/><rect id="rect3180-3" data-name="rect3180" class="cls-11" x="252.5" y="276.5" width="24" height="24"/><rect id="rect3182-3" data-name="rect3182" class="cls-11" x="276.5" y="300.5" width="24" height="24"/><rect id="rect3184-3" data-name="rect3184" class="cls-11" x="300.5" y="276.5" width="24" height="24"/></g></g><g id="g3262"><path id="path3041-4" data-name="path3041" class="cls-8" d="M288.5.5l72,72-72,72-72-72Z"/><path id="path3176-4" data-name="path3176" class="cls-7" d="M288.5,24.5l48,48-48,48-48-48Z"/><g id="g3268"><rect id="rect3178-4" data-name="rect3178" class="cls-12" x="276.5" y="36.5" width="24" height="24"/><rect id="rect3180-4" data-name="rect3180" class="cls-12" x="252.5" y="60.5" width="24" height="24"/><rect id="rect3182-4" data-name="rect3182" class="cls-12" x="276.5" y="84.5" width="24" height="24"/><rect id="rect3184-4" data-name="rect3184" class="cls-12" x="300.5" y="60.5" width="24" height="24"/></g></g></g></g></g></svg>